<svg width="16" height="16" viewBox="0 0 16 16" fill="none" xmlns="http://www.w3.org/2000/svg">
<path d="M6.5 1C6.00372 1 3.3432 1 1.87468 1C1.39143 1 1 1.39175 1 1.875V14.125C1 14.6082 1.39175 15 1.875 15H14.125C14.6082 15 15 14.6082 15 14.125V9.5" stroke="#5BFEA7" stroke-width="1.3125" stroke-linecap="round"/>
<path d="M14.3438 6.55555C14.3438 6.91799 14.6376 7.2118 15 7.2118C15.3625 7.2118 15.6563 6.91799 15.6563 6.55555H14.3438ZM15 1H15.6563C15.6563 0.637563 15.3625 0.34375 15 0.34375V1ZM9.44448 0.34375C9.08205 0.34375 8.78823 0.637563 8.78823 1C8.78823 1.36244 9.08205 1.65625 9.44448 1.65625V0.34375ZM2.86934 12.2026C2.61305 12.4589 2.61305 12.8744 2.86934 13.1307C3.12562 13.387 3.54113 13.387 3.79741 13.1307L2.86934 12.2026ZM15.6563 6.55555V1H14.3438V6.55555H15.6563ZM15 0.34375H9.44448V1.65625H15V0.34375ZM3.79741 13.1307L15.4641 1.46404L14.536 0.535961L2.86934 12.2026L3.79741 13.1307Z" fill="#5BFEA7"/>
</svg>
